# xmcd
#
# Track frame offsets: 
#        182
#        10932
#        22342
#        33642
#        47217
#        58042
#        71835
#        87117
#        97192
#        109497
#        121342
#        135202
#        147062
#        157380
#        169655
#        181332
#        191382
#        202167
#        214082
#        226775
#
# Disc length: 3198 seconds
#
# Revision: 0
# Processed by: cddbd v1.5.2PL0 Copyright (c) Steve Scherf et al.
# Submitted via: ExactAudioCopyFreeDBPlugin 1.0
#
DISCID=280c7c14
DTITLE=Misc - AMERICAN COUNTRY
DYEAR=1994
DGENRE=Country
TTITLE0=HE'LL HAVE TO GO - JIM REEVES
TTITLE1=OH LONESOME ME - DON GIBSON
TTITLE2=BLUE BAYON - ROY ORBISON
TTITLE3=GENTLE ON MY MIND - BUCK OWENS
TTITLE4=MULE SKINNER BLUES - THE FENDERMEN
TTITLE5=TOM DOOLEY - THE KINGSTONE TRIO
TTITLE6=FOR THE GOODS TIMES - KENNY ROGERS
TTITLE7=RELEASE ME - DOLLY PARTON
TTITLE8=500 MILES AWAY FROM HOME - BOBBY BARE
TTITLE9=RING ON FIRE - JOHNNY CASH
TTITLE10=HOME IS WHERE YOU'RE HAPPY - WILLIE NELSON
TTITLE11=SIXTEEN TONS - TENNESSEE ERNIE FORD
TTITLE12=BYE BYE LOVE - THE EVERLY BROTHERS
TTITLE13=STAND BY YOUR MAN - LYNN ANDERSON
TTITLE14=MULE TRAIN - FRANKIE LANE
TTITLE15=ABILENE - GEORGE HAMILTON IV
TTITLE16=PLEASE HELP ME, I'M FALLING - HANK LOCKLIN
TTITLE17=I CAN'T STOP LOVING YOU - DON GIBSON
TTITLE18=MAKING BELIVES - KITTY WELLS
TTITLE19=JAMBALAYA - THE DRIFTING COWBOYS
EXTD=
EXTT0=
EXTT1=
EXTT2=
EXTT3=
EXTT4=
EXTT5=
EXTT6=
EXTT7=
EXTT8=
EXTT9=
EXTT10=
EXTT11=
EXTT12=
EXTT13=
EXTT14=
EXTT15=
EXTT16=
EXTT17=
EXTT18=
EXTT19=
PLAYORDER=
